# xmcd
#
# Track frame offsets:
#	150
#	18057
#	32313
#	47256
#	60351
#	75811
#	91908
#	106044
#	120322
#	134246
#
# Disc length: 1970 seconds
#
# Revision: 0
# Processed by: cddbd v1.5.2PL0 Copyright (c) Steve Scherf et al.
# Submitted via: EasyCDDAExtractor 10.2.0.1
#
DISCID=5d07b00a
DTITLE=Otha and Linda Geeslen - Is It Not Good
DYEAR=2007
DGENRE=Gospel
TTITLE0=Is It Not Good
TTITLE1=Here I Am Again
TTITLE2=Holy, Holy, Holy
TTITLE3=I No Longer Get The Blues
TTITLE4=It's Not Your Life
TTITLE5=On The Other Side Of Heaven
TTITLE6=Walking With Jesus
TTITLE7=Your Loving Arms
TTITLE8=Lift Up Your Voice
TTITLE9=That Peaceful River
EXTD=
EXTT0=
EXTT1=
EXTT2=
EXTT3=
EXTT4=
EXTT5=
EXTT6=
EXTT7=
EXTT8=
EXTT9=
PLAYORDER=
